# xmcd CD database file
#
# Track frame offsets:
#	150
#	21312
#	45982
#	79705
#	97662
#	116618
#	137606
#	158278
#	178686
#	195243
#	215394
#	240010
#
# Disc length: 3704 seconds
#
# Revision: 0
# Processed by: cddbd v1.5.1PL2 Copyright (c) Steve Scherf et al.
# Submitted via: CDex 1.51
#
DISCID=7d0e760c
DTITLE=Steve Hall Quintet - The Steve Hall Quintet
DYEAR=2006
DGENRE=Jazz
TTITLE0=On a Scale of One to Five
TTITLE1=Blue Sky and Black Coffee
TTITLE2=Monk's Dream
TTITLE3=Rasta Turtle
TTITLE4=Moment's Notice
TTITLE5=Thursday Strut
TTITLE6=Darn That Dream
TTITLE7=Cap'n Jack Blues
TTITLE8=What You Say to That?
TTITLE9=Silver's Serenade
TTITLE10=Steamy Night Shuffle
TTITLE11=Witch Hunt
EXTD=YEAR: 2006
EXTT0=
EXTT1=
EXTT2=
EXTT3=
EXTT4=
EXTT5=
EXTT6=
EXTT7=
EXTT8=
EXTT9=
EXTT10=
EXTT11=
PLAYORDER=
